<svg xmlns="http://www.w3.org/2000/svg" xmlns:xlink="http://www.w3.org/1999/xlink" width="319" height="319" viewBox="0 0 319 319">
  <defs>
    <linearGradient id="linear-gradient" x1="1.929" y1="-0.663" x2="0.236" y2="0.72" gradientUnits="objectBoundingBox">
      <stop offset="0" stop-color="#5b4af4"/>
      <stop offset="1" stop-color="#992df3"/>
    </linearGradient>
    <clipPath id="clip-main_photo">
      <rect width="319" height="319"/>
    </clipPath>
  </defs>
  <g id="main_photo" clip-path="url(#clip-main_photo)">
    <rect width="319" height="319" fill="url(#linear-gradient)"/>
    <g id="Group_768" data-name="Group 768" transform="translate(-430.287 -657.12)">
      <path id="Path_1615" data-name="Path 1615" d="M543.74,833.807c2.378-5.554,4.461-10.3,6.447-15.077q7.513-18.1,14.956-36.221c1.753-4.247,3.554-8.473,5.237-12.747a3.98,3.98,0,0,1,4.24-2.755c15.661.05,31.322.027,46.983.041a6.157,6.157,0,0,1,1.266.389c-.986,2.566-1.9,5.1-2.929,7.591-1.913,4.616-4.016,9.156-5.791,13.822a3.508,3.508,0,0,1-3.883,2.59c-6.551-.079-13.1.029-19.652-.069-2.513-.037-4.028.553-5.033,3.239-2.457,6.574-5.449,12.946-8.036,19.475a6.1,6.1,0,0,0,.033,4.089c2.681,6.842,5.67,13.563,8.315,20.418a3.569,3.569,0,0,0,3.875,2.64c6.653-.022,13.308.073,19.96,0,2.144-.024,3.522.326,4.441,2.673,2.71,6.914,5.76,13.7,8.883,21.012a27.691,27.691,0,0,1-3.445.469c-14.843.022-29.685-.034-44.527.044-2.568.013-4.122-.549-4.976-3.3-1.174-3.786-2.9-7.4-4.448-11.069a27.726,27.726,0,0,0-1.947-3.073c-1.907,4.468-3.515,8.13-5.038,11.827-2.289,5.558-2.264,5.57-8.193,5.57-5.425,0-10.857-.16-16.273.069-2.638.112-3.9-.966-4.809-3.207-3.121-7.657-6.334-15.276-9.512-22.91-4.31-10.355-8.654-20.7-12.922-31.07-5.043-12.256-10.018-24.541-15.036-36.808-.268-.655-.7-1.242-.99-1.892-.682-1.547-.529-2.569,1.536-2.554,7.062.051,14.13-.082,21.181.212,1.114.046,2.608,1.741,3.151,3.006,3.737,8.726,7.256,17.545,10.868,26.325q7.051,17.143,14.156,34.263A24.927,24.927,0,0,0,543.74,833.807Z" transform="translate(0 -0.041)" fill="#fff"/>
      <path id="Path_1616" data-name="Path 1616" d="M767.693,767.3c-1.472,3.773-2.694,7.077-4.046,10.328-1.6,3.859-3.357,7.657-4.971,11.513a3.345,3.345,0,0,1-3.737,2.309c-6.544-.2-13.1-.054-19.644-.2a4.616,4.616,0,0,0-4.883,3.291c-2.569,6.319-5.364,12.551-7.753,18.936a8.576,8.576,0,0,0,.05,5.56c2.442,6.486,5.257,12.83,7.884,19.248a4.209,4.209,0,0,0,4.455,2.928c6.24-.108,12.486.067,18.725-.091,2.961-.075,4.651.831,5.743,3.779,2.158,5.824,4.723,11.5,7.185,17.208.96,2.226.453,3.246-2.071,3.243-15.35-.021-30.7-.057-46.049.057-2.587.02-3.058-1.844-3.712-3.393-3.727-8.824-7.3-17.712-10.938-26.575-2.363-5.759-4.815-11.485-7.049-17.294a5.992,5.992,0,0,1-.093-4.01c5.834-14.459,11.808-28.862,17.73-43.286,1.076-2.621,2.444-4.019,5.813-3.957,14.526.272,29.06.1,43.591.111C764.986,767.015,766.047,767.172,767.693,767.3Z" transform="translate(-79.427)" fill="#fff"/>
    </g>
  </g>
</svg>
